<svg width="806" height="825" viewBox="0 0 806 825" fill="none" xmlns="http://www.w3.org/2000/svg">
<path d="M26 755.231L29.5676 759L37 752" stroke="#CCCCCC" stroke-width="2" stroke-linecap="round" stroke-linejoin="round"/>
<path d="M59 755.231L62.5676 759L70 752" stroke="#830890" stroke-width="2" stroke-linecap="round" stroke-linejoin="round"/>
<path d="M26.7076 691.293C26.3171 690.902 25.6839 690.902 25.2934 691.293C24.9029 691.683 24.9029 692.317 25.2934 692.707L26.7076 691.293ZM41.2934 708.707C41.6839 709.098 42.317 709.098 42.7076 708.707C43.0981 708.317 43.0981 707.683 42.7076 707.293L41.2934 708.707ZM25.2934 692.707L41.2934 708.707L42.7076 707.293L26.7076 691.293L25.2934 692.707Z" fill="black"/>
<path d="M41.2929 691.293C41.6834 690.902 42.3166 690.902 42.7071 691.293C43.0976 691.683 43.0976 692.317 42.7071 692.707L41.2929 691.293ZM26.7071 708.707C26.3166 709.098 25.6834 709.098 25.2929 708.707C24.9024 708.317 24.9024 707.683 25.2929 707.293L26.7071 708.707ZM42.7071 692.707L26.7071 708.707L25.2929 707.293L41.2929 691.293L42.7071 692.707Z" fill="black"/>
<path d="M64.7076 691.293C64.3171 690.902 63.6839 690.902 63.2934 691.293C62.9029 691.683 62.9029 692.317 63.2934 692.707L64.7076 691.293ZM79.2934 708.707C79.6839 709.098 80.317 709.098 80.7076 708.707C81.0981 708.317 81.0981 707.683 80.7076 707.293L79.2934 708.707ZM63.2934 692.707L79.2934 708.707L80.7076 707.293L64.7076 691.293L63.2934 692.707Z" fill="white"/>
<path d="M79.2929 691.293C79.6834 690.902 80.3166 690.902 80.7071 691.293C81.0976 691.683 81.0976 692.317 80.7071 692.707L79.2929 691.293ZM64.7071 708.707C64.3166 709.098 63.6834 709.098 63.2929 708.707C62.9024 708.317 62.9024 707.683 63.2929 707.293L64.7071 708.707ZM80.7071 692.707L64.7071 708.707L63.2929 707.293L79.2929 691.293L80.7071 692.707Z" fill="white"/>
<g clip-path="url(#clip0_2773_3212)">
<path d="M390.327 597.877C388.689 596.238 386.033 596.238 384.395 597.877L379.966 602.305C378.328 603.943 378.328 606.599 379.966 608.238C381.605 609.876 384.261 609.876 385.899 608.238L388.65 605.487" stroke="black" stroke-width="2" stroke-linecap="round"/>
<path d="M387.219 600.987C388.857 602.625 391.513 602.625 393.152 600.987L398.239 595.899C399.877 594.261 399.877 591.605 398.239 589.966C396.601 588.328 393.945 588.328 392.306 589.966L388.971 593.302" stroke="black" stroke-width="2" stroke-linecap="round"/>
</g>
<g clip-path="url(#clip1_2773_3212)">
<path d="M434.327 597.877C432.689 596.238 430.033 596.238 428.395 597.877L423.966 602.305C422.328 603.943 422.328 606.599 423.966 608.238C425.605 609.876 428.261 609.876 429.899 608.238L432.65 605.487" stroke="#707070" stroke-width="2" stroke-linecap="round"/>
<path d="M431.219 600.987C432.857 602.625 435.513 602.625 437.152 600.987L442.239 595.899C443.877 594.261 443.877 591.605 442.239 589.966C440.601 588.328 437.945 588.328 436.306 589.966L432.971 593.302" stroke="#707070" stroke-width="2" stroke-linecap="round"/>
</g>
<g clip-path="url(#clip2_2773_3212)">
<path d="M38.3517 607.594L37.6446 606.887L37.639 606.893L38.3517 607.594ZM46.3251 599.621L45.618 598.914L45.618 598.914L46.3251 599.621ZM46.3569 591.641L47.0696 590.94L46.3569 591.641ZM38.4401 591.609L39.1472 592.317L39.1472 592.317L38.4401 591.609ZM35.5374 591.609L36.2445 590.902L36.2445 590.902L35.5374 591.609ZM27.6206 591.64L28.3333 592.342L27.6206 591.64ZM27.6524 599.62L28.3595 598.913L28.3595 598.913L27.6524 599.62ZM35.5249 607.493L36.2377 606.791L36.232 606.786L35.5249 607.493ZM36.9717 608.963L37.6844 608.261L36.9717 608.963ZM36.9833 608.963L37.6905 609.67L36.9833 608.963ZM37.6963 592.353L36.9891 591.646L37.6963 592.353ZM37.0054 608.962L36.2927 608.261L37.0054 608.962ZM36.9837 608.962L36.2766 608.255L36.9837 608.962ZM37.7181 609.664L39.0644 608.296L37.639 606.893L36.2927 608.261L37.7181 609.664ZM45.618 598.914L37.6446 606.887L39.0588 608.301L47.0322 600.328L45.618 598.914ZM45.6442 592.342C47.4363 594.163 47.4246 597.107 45.618 598.914L47.0322 600.328C49.6155 597.745 49.6322 593.543 47.0696 590.94L45.6442 592.342ZM39.1472 592.317C40.9494 590.514 43.8564 590.526 45.6442 592.342L47.0696 590.94C44.5026 588.331 40.3207 588.315 37.733 590.902L39.1472 592.317ZM38.4034 593.06L39.1472 592.317L37.733 590.902L36.9891 591.646L38.4034 593.06ZM36.9891 591.646L36.2445 590.902L34.8303 592.316L35.5749 593.06L36.9891 591.646ZM36.2445 590.902C33.6568 588.314 29.4749 588.331 26.9079 590.939L28.3333 592.342C30.1211 590.525 33.0281 590.514 34.8303 592.316L36.2445 590.902ZM26.9079 590.939C24.3453 593.542 24.362 597.744 26.9453 600.327L28.3595 598.913C26.5529 597.106 26.5412 594.163 28.3333 592.342L26.9079 590.939ZM26.9453 600.327L34.8178 608.2L36.232 606.786L28.3595 598.913L26.9453 600.327ZM37.6844 608.261L36.2376 606.791L34.8122 608.194L36.259 609.664L37.6844 608.261ZM36.2766 608.255L36.2762 608.256L37.6905 609.67L37.6909 609.669L36.2766 608.255ZM36.259 609.664C36.6518 610.063 37.2945 610.066 37.6905 609.67L36.2762 608.256C36.6657 607.866 37.298 607.869 37.6844 608.261L36.259 609.664ZM36.9891 591.646L36.9891 591.646L35.5749 593.06C36.356 593.842 37.6223 593.842 38.4034 593.06L36.9891 591.646ZM36.2874 609.669C36.6831 610.065 37.3255 610.063 37.7181 609.664L36.2927 608.261C36.6793 607.868 37.312 607.866 37.7017 608.255L36.2874 609.669ZM37.7017 608.255C37.3082 607.862 36.6701 607.862 36.2766 608.255L37.6909 609.669C37.3033 610.057 36.675 610.057 36.2874 609.669L37.7017 608.255Z" fill="black"/>
<path d="M33.1328 595.498C32.7423 595.889 32.7422 596.522 33.1328 596.912C33.5233 597.303 34.1565 597.303 34.547 596.912L33.1328 595.498ZM38.2543 593.205C38.6448 592.815 38.6448 592.181 38.2543 591.791C37.8637 591.4 37.2306 591.4 36.8401 591.791L38.2543 593.205ZM34.547 596.912L38.2543 593.205L36.8401 591.791L33.1328 595.498L34.547 596.912Z" fill="black"/>
</g>
<path d="M77 597L85 593" stroke="black" stroke-width="2" stroke-linecap="round" stroke-linejoin="round"/>
<path d="M77 601L85 605" stroke="black" stroke-width="2" stroke-linecap="round" stroke-linejoin="round"/>
<path d="M73.5 602.5C75.433 602.5 77 600.933 77 599C77 597.067 75.433 595.5 73.5 595.5C71.567 595.5 70 597.067 70 599C70 600.933 71.567 602.5 73.5 602.5Z" stroke="black" stroke-width="2" stroke-linecap="round" stroke-linejoin="round"/>
<path d="M88.5 595C90.433 595 92 593.433 92 591.5C92 589.567 90.433 588 88.5 588C86.567 588 85 589.567 85 591.5C85 593.433 86.567 595 88.5 595Z" stroke="black" stroke-width="2" stroke-linecap="round" stroke-linejoin="round"/>
<path d="M88.5 610C90.433 610 92 608.433 92 606.5C92 604.567 90.433 603 88.5 603C86.567 603 85 604.567 85 606.5C85 608.433 86.567 610 88.5 610Z" stroke="black" stroke-width="2" stroke-linecap="round" stroke-linejoin="round"/>
<circle cx="44.9939" cy="526.263" r="16.7698" transform="rotate(-180 44.9939 526.263)" stroke="black" stroke-width="2"/>
<path d="M58.1358 508C60.1435 509.082 62.8786 511.949 63.8661 513.923" stroke="black" stroke-width="2" stroke-linecap="round"/>
<path d="M31.8534 508C29.8458 509.082 27.1107 511.949 26.1232 513.923" stroke="black" stroke-width="2" stroke-linecap="round"/>
<mask id="path-22-inside-1_2773_3212" fill="white">
<ellipse rx="1.97442" ry="1.97442" transform="matrix(-1 0 0 1 44.9943 526.263)"/>
</mask>
<ellipse rx="1.97442" ry="1.97442" transform="matrix(-1 0 0 1 44.9943 526.263)" fill="black"/>
<path d="M45.0199 526.263C45.0199 526.264 45.02 526.263 45.0194 526.26C45.0189 526.258 45.0181 526.255 45.0171 526.253C45.0152 526.248 45.0133 526.246 45.0124 526.245C45.0116 526.245 45.0094 526.243 45.0049 526.241C45.0025 526.24 44.9999 526.239 44.9974 526.238C44.9947 526.238 44.9935 526.238 44.9943 526.238V530.238C42.7993 530.238 41.0199 528.458 41.0199 526.263H45.0199ZM44.9943 526.238C44.9952 526.238 44.994 526.238 44.9913 526.238C44.9888 526.239 44.9861 526.24 44.9838 526.241C44.9793 526.243 44.9771 526.245 44.9762 526.245C44.9754 526.246 44.9735 526.248 44.9716 526.253C44.9706 526.255 44.9698 526.258 44.9692 526.26C44.9687 526.263 44.9688 526.264 44.9688 526.263H48.9688C48.9688 528.458 47.1893 530.238 44.9943 530.238V526.238ZM44.9688 526.263C44.9688 526.263 44.9687 526.264 44.9692 526.267C44.9698 526.269 44.9706 526.272 44.9716 526.274C44.9735 526.279 44.9754 526.281 44.9762 526.282C44.9771 526.282 44.9793 526.284 44.9838 526.286C44.9861 526.287 44.9888 526.288 44.9913 526.289C44.994 526.289 44.9952 526.289 44.9943 526.289V522.289C47.1893 522.289 48.9688 524.068 48.9688 526.263H44.9688ZM44.9943 526.289C44.9935 526.289 44.9947 526.289 44.9974 526.289C44.9999 526.288 45.0025 526.287 45.0049 526.286C45.0094 526.284 45.0116 526.282 45.0124 526.282C45.0133 526.281 45.0152 526.279 45.0171 526.274C45.0181 526.272 45.0189 526.269 45.0194 526.267C45.02 526.264 45.0199 526.263 45.0199 526.263H41.0199C41.0199 524.068 42.7993 522.289 44.9943 522.289V526.289Z" fill="black" mask="url(#path-22-inside-1_2773_3212)"/>
<path d="M34.5029 539.729L29.9949 545.985" stroke="black" stroke-width="2" stroke-linecap="round"/>
<path d="M55.4854 539.729L59.9934 545.985" stroke="black" stroke-width="2" stroke-linecap="round"/>
<path d="M44.9941 525.385L44.9941 516.602" stroke="black" stroke-width="2" stroke-linecap="round"/>
<circle cx="164.994" cy="526.263" r="16.7698" transform="rotate(-180 164.994 526.263)" stroke="white" stroke-width="2"/>
<path d="M178.136 508C180.144 509.082 182.879 511.949 183.866 513.923" stroke="white" stroke-width="2" stroke-linecap="round"/>
<path d="M151.853 508C149.846 509.082 147.111 511.949 146.123 513.923" stroke="white" stroke-width="2" stroke-linecap="round"/>
<mask id="path-30-inside-2_2773_3212" fill="white">
<ellipse rx="1.97442" ry="1.97442" transform="matrix(-1 0 0 1 164.994 526.263)"/>
</mask>
<ellipse rx="1.97442" ry="1.97442" transform="matrix(-1 0 0 1 164.994 526.263)" fill="white"/>
<path d="M165.02 526.263C165.02 526.264 165.02 526.263 165.019 526.26C165.019 526.258 165.018 526.255 165.017 526.253C165.015 526.248 165.013 526.246 165.012 526.245C165.012 526.245 165.009 526.243 165.005 526.241C165.003 526.24 165 526.239 164.997 526.238C164.995 526.238 164.993 526.238 164.994 526.238V530.238C162.799 530.238 161.02 528.458 161.02 526.263H165.02ZM164.994 526.238C164.995 526.238 164.994 526.238 164.991 526.238C164.989 526.239 164.986 526.24 164.984 526.241C164.979 526.243 164.977 526.245 164.976 526.245C164.975 526.246 164.973 526.248 164.972 526.253C164.971 526.255 164.97 526.258 164.969 526.26C164.969 526.263 164.969 526.264 164.969 526.263H168.969C168.969 528.458 167.189 530.238 164.994 530.238V526.238ZM164.969 526.263C164.969 526.263 164.969 526.264 164.969 526.267C164.97 526.269 164.971 526.272 164.972 526.274C164.973 526.279 164.975 526.281 164.976 526.282C164.977 526.282 164.979 526.284 164.984 526.286C164.986 526.287 164.989 526.288 164.991 526.289C164.994 526.289 164.995 526.289 164.994 526.289V522.289C167.189 522.289 168.969 524.068 168.969 526.263H164.969ZM164.994 526.289C164.993 526.289 164.995 526.289 164.997 526.289C165 526.288 165.003 526.287 165.005 526.286C165.009 526.284 165.012 526.282 165.012 526.282C165.013 526.281 165.015 526.279 165.017 526.274C165.018 526.272 165.019 526.269 165.019 526.267C165.02 526.264 165.02 526.263 165.02 526.263H161.02C161.02 524.068 162.799 522.289 164.994 522.289V526.289Z" fill="white" mask="url(#path-30-inside-2_2773_3212)"/>
<path d="M154.503 539.729L149.995 545.985" stroke="white" stroke-width="2" stroke-linecap="round"/>
<path d="M175.485 539.729L179.993 545.985" stroke="white" stroke-width="2" stroke-linecap="round"/>
<path d="M164.994 525.385L164.994 516.602" stroke="white" stroke-width="2" stroke-linecap="round"/>
<path d="M90 533.25L101.25 522" stroke="black" stroke-width="2" stroke-linecap="round" stroke-linejoin="round"/>
<path d="M90 543.25L111.25 522" stroke="black" stroke-width="2" stroke-linecap="round" stroke-linejoin="round"/>
<path d="M97.5 545.75L120 523.25" stroke="black" stroke-width="2" stroke-linecap="round" stroke-linejoin="round"/>
<path d="M108.75 545.75L120 534.5" stroke="black" stroke-width="2" stroke-linecap="round" stroke-linejoin="round"/>
<path d="M93 515.75C93 515.75 94 508.26 97 509.26C100 510.26 107 515.75 107 515.75C107 515.75 101.625 515.75 99.5004 515.75C97.3754 515.75 93 515.75 93 515.75Z" stroke="black" stroke-width="2" stroke-linecap="round" stroke-linejoin="round"/>
<path d="M117 515.75C117 515.75 116 508.26 113 509.26C110 510.26 103 515.75 103 515.75C103 515.75 108.375 515.75 110.5 515.75C112.625 515.75 117 515.75 117 515.75Z" stroke="black" stroke-width="2" stroke-linecap="round" stroke-linejoin="round"/>
<path d="M120 522V545.75H90V522" stroke="black" stroke-width="2" stroke-linecap="round" stroke-linejoin="round"/>
<path d="M123.75 515.75H86.25V522H123.75V515.75Z" stroke="black" stroke-width="2" stroke-linecap="round" stroke-linejoin="round"/>
<path d="M27.5 652C26.9477 652 26.5 651.552 26.5 651C26.5 650.448 26.9477 650 27.5 650L27.5 652ZM44 650C44.5523 650 45 650.448 45 651C45 651.552 44.5523 652 44 652L44 650ZM27.5 650L44 650L44 652L27.5 652L27.5 650Z" fill="black"/>
<path d="M32.7929 644.293C33.1834 643.902 33.8166 643.902 34.2071 644.293C34.5976 644.683 34.5976 645.317 34.2071 645.707L32.7929 644.293ZM27.5 651L26.7929 651.707L26.0858 651L26.7929 650.293L27.5 651ZM34.2071 656.293C34.5976 656.683 34.5976 657.317 34.2071 657.707C33.8166 658.098 33.1834 658.098 32.7929 657.707L34.2071 656.293ZM34.2071 645.707L28.2071 651.707L26.7929 650.293L32.7929 644.293L34.2071 645.707ZM28.2071 650.293L34.2071 656.293L32.7929 657.707L26.7929 651.707L28.2071 650.293Z" fill="black"/>
<path d="M107.5 652C106.948 652 106.5 651.552 106.5 651C106.5 650.448 106.948 650 107.5 650L107.5 652ZM124 650C124.552 650 125 650.448 125 651C125 651.552 124.552 652 124 652L124 650ZM107.5 650L124 650L124 652L107.5 652L107.5 650Z" fill="#CCCCCC"/>
<path d="M112.793 644.293C113.183 643.902 113.817 643.902 114.207 644.293C114.598 644.683 114.598 645.317 114.207 645.707L112.793 644.293ZM107.5 651L106.793 651.707L106.086 651L106.793 650.293L107.5 651ZM114.207 656.293C114.598 656.683 114.598 657.317 114.207 657.707C113.817 658.098 113.183 658.098 112.793 657.707L114.207 656.293ZM114.207 645.707L108.207 651.707L106.793 650.293L112.793 644.293L114.207 645.707ZM108.207 650.293L114.207 656.293L112.793 657.707L106.793 651.707L108.207 650.293Z" fill="#CCCCCC"/>
<g clip-path="url(#clip3_2773_3212)">
<path d="M117.909 704.917C118.345 704.577 118.422 703.949 118.083 703.513C117.743 703.078 117.115 703 116.679 703.34L117.909 704.917ZM118.693 700.085C118.585 700.627 118.936 701.153 119.478 701.262C120.019 701.37 120.546 701.019 120.654 700.477L118.693 700.085ZM113.3 704.5C110.262 704.5 107.8 702.038 107.8 699H105.8C105.8 703.142 109.158 706.5 113.3 706.5V704.5ZM107.8 699C107.8 695.962 110.262 693.5 113.3 693.5V691.5C109.158 691.5 105.8 694.858 105.8 699H107.8ZM113.3 693.5C116.338 693.5 118.8 695.962 118.8 699H120.8C120.8 694.858 117.442 691.5 113.3 691.5V693.5ZM116.679 703.34C115.747 704.067 114.575 704.5 113.3 704.5V706.5C115.037 706.5 116.638 705.909 117.909 704.917L116.679 703.34ZM118.8 699C118.8 699.372 118.763 699.735 118.693 700.085L120.654 700.477C120.75 699.999 120.8 699.505 120.8 699H118.8Z" fill="#545454"/>
<path d="M120.026 701.742C119.906 701.879 119.694 701.879 119.574 701.742L116.735 698.498C116.566 698.304 116.703 698 116.961 698L122.639 698C122.897 698 123.034 698.304 122.865 698.498L120.026 701.742Z" fill="#545454"/>
</g>
<g clip-path="url(#clip4_2773_3212)">
<path d="M82.6 652C83.1523 652 83.6 651.552 83.6 651C83.6 650.448 83.1523 650 82.6 650L82.6 652ZM66.1 650C65.5477 650 65.1 650.448 65.1 651C65.1 651.552 65.5477 652 66.1 652L66.1 650ZM82.6 650L66.1 650L66.1 652L82.6 652L82.6 650Z" fill="black"/>
<path d="M77.3071 644.293C76.9166 643.902 76.2834 643.902 75.8929 644.293C75.5023 644.683 75.5023 645.317 75.8929 645.707L77.3071 644.293ZM82.6 651L83.3071 651.707L84.0142 651L83.3071 650.293L82.6 651ZM75.8929 656.293C75.5023 656.683 75.5023 657.317 75.8929 657.707C76.2834 658.098 76.9166 658.098 77.3071 657.707L75.8929 656.293ZM75.8929 645.707L81.8929 651.707L83.3071 650.293L77.3071 644.293L75.8929 645.707ZM81.8929 650.293L75.8929 656.293L77.3071 657.707L83.3071 651.707L81.8929 650.293Z" fill="black"/>
</g>
<path d="M192.707 657.707C192.317 658.098 191.683 658.098 191.293 657.707C190.902 657.317 190.902 656.683 191.293 656.293L192.707 657.707ZM198 651L198.707 650.293L199.414 651L198.707 651.707L198 651ZM191.293 645.707C190.902 645.317 190.902 644.683 191.293 644.293C191.683 643.902 192.317 643.902 192.707 644.293L191.293 645.707ZM191.293 656.293L197.293 650.293L198.707 651.707L192.707 657.707L191.293 656.293ZM197.293 651.707L191.293 645.707L192.707 644.293L198.707 650.293L197.293 651.707Z" fill="white"/>
<path d="M268.293 648.707C267.902 648.317 267.902 647.683 268.293 647.293C268.683 646.902 269.317 646.902 269.707 647.293L268.293 648.707ZM275 654L275.707 654.707L275 655.414L274.293 654.707L275 654ZM280.293 647.293C280.683 646.902 281.317 646.902 281.707 647.293C282.098 647.683 282.098 648.317 281.707 648.707L280.293 647.293ZM269.707 647.293L275.707 653.293L274.293 654.707L268.293 648.707L269.707 647.293ZM274.293 653.293L280.293 647.293L281.707 648.707L275.707 654.707L274.293 653.293Z" fill="white"/>
<path d="M321.707 653.293C322.098 653.683 322.098 654.317 321.707 654.707C321.317 655.098 320.683 655.098 320.293 654.707L321.707 653.293ZM315 648L314.293 647.293L315 646.586L315.707 647.293L315 648ZM309.707 654.707C309.317 655.098 308.683 655.098 308.293 654.707C307.902 654.317 307.902 653.683 308.293 653.293L309.707 654.707ZM320.293 654.707L314.293 648.707L315.707 647.293L321.707 653.293L320.293 654.707ZM315.707 648.707L309.707 654.707L308.293 653.293L314.293 647.293L315.707 648.707Z" fill="white"/>
<path d="M237.293 657.707C237.683 658.098 238.317 658.098 238.707 657.707C239.098 657.317 239.098 656.683 238.707 656.293L237.293 657.707ZM232 651L231.293 650.293L230.586 651L231.293 651.707L232 651ZM238.707 645.707C239.098 645.317 239.098 644.683 238.707 644.293C238.317 643.902 237.683 643.902 237.293 644.293L238.707 645.707ZM238.707 656.293L232.707 650.293L231.293 651.707L237.293 657.707L238.707 656.293ZM232.707 651.707L238.707 645.707L237.293 644.293L231.293 650.293L232.707 651.707Z" fill="white"/>
<g clip-path="url(#clip5_2773_3212)">
<path d="M162.6 652C163.152 652 163.6 651.552 163.6 651C163.6 650.448 163.152 650 162.6 650L162.6 652ZM146.1 650C145.548 650 145.1 650.448 145.1 651C145.1 651.552 145.548 652 146.1 652L146.1 650ZM162.6 650L146.1 650L146.1 652L162.6 652L162.6 650Z" fill="#CCCCCC"/>
<path d="M157.307 644.293C156.917 643.902 156.283 643.902 155.893 644.293C155.502 644.683 155.502 645.317 155.893 645.707L157.307 644.293ZM162.6 651L163.307 651.707L164.014 651L163.307 650.293L162.6 651ZM155.893 656.293C155.502 656.683 155.502 657.317 155.893 657.707C156.283 658.098 156.917 658.098 157.307 657.707L155.893 656.293ZM155.893 645.707L161.893 651.707L163.307 650.293L157.307 644.293L155.893 645.707ZM161.893 650.293L155.893 656.293L157.307 657.707L163.307 651.707L161.893 650.293Z" fill="#CCCCCC"/>
</g>
<path d="M29.7071 791.293C29.3166 790.902 28.6834 790.902 28.2929 791.293C27.9024 791.683 27.9024 792.317 28.2929 792.707L29.7071 791.293ZM34.2929 798.707C34.6834 799.098 35.3166 799.098 35.7071 798.707C36.0976 798.317 36.0976 797.683 35.7071 797.293L34.2929 798.707ZM28.2929 792.707L34.2929 798.707L35.7071 797.293L29.7071 791.293L28.2929 792.707Z" fill="white"/>
<path d="M29.7071 798.707C29.3166 799.098 28.6834 799.098 28.2929 798.707C27.9024 798.317 27.9024 797.683 28.2929 797.293L29.7071 798.707ZM34.2929 791.293C34.6834 790.902 35.3166 790.902 35.7071 791.293C36.0976 791.683 36.0976 792.317 35.7071 792.707L34.2929 791.293ZM28.2929 797.293L34.2929 791.293L35.7071 792.707L29.7071 798.707L28.2929 797.293Z" fill="white"/>
<rect x="113" y="590" width="24" height="2" rx="1" fill="black"/>
<rect x="113" y="598" width="18" height="2" rx="1" fill="black"/>
<rect x="113" y="606" width="24" height="2" rx="1" fill="black"/>
<path d="M159.863 594.127C159.863 594.122 159.867 594.118 159.873 594.118H178.13C178.135 594.118 178.139 594.122 178.14 594.127L179.413 609.986C179.414 609.992 179.409 609.997 179.403 609.997H158.597C158.591 609.997 158.586 609.992 158.587 609.986L159.863 594.127Z" stroke="black" stroke-width="2"/>
<path d="M171.833 596.946C171.833 597.499 172.281 597.946 172.833 597.946C173.386 597.946 173.833 597.499 173.833 596.946H171.833ZM164.167 596.946C164.167 597.499 164.614 597.946 165.167 597.946C165.719 597.946 166.167 597.499 166.167 596.946H164.167ZM171.833 591.835V596.946H173.833V591.835H171.833ZM166.167 596.946V591.835H164.167V596.946H166.167ZM169 589.002C170.565 589.002 171.833 590.27 171.833 591.835H173.833C173.833 589.166 171.669 587.002 169 587.002V589.002ZM169 587.002C166.331 587.002 164.167 589.166 164.167 591.835H166.167C166.167 590.27 167.435 589.002 169 589.002V587.002Z" fill="black"/>
<path d="M210.347 607.741C210.735 608.134 211.365 608.134 211.754 607.741C212.142 607.349 212.142 606.712 211.754 606.32L210.347 607.741ZM203.101 599L202.397 598.289C202.008 598.682 202.008 599.318 202.397 599.711L203.101 599ZM211.754 591.68C212.142 591.288 212.142 590.651 211.754 590.259C211.365 589.866 210.735 589.866 210.347 590.259L211.754 591.68ZM211.754 606.32L203.804 598.289L202.397 599.711L210.347 607.741L211.754 606.32ZM203.804 599.711L211.754 591.68L210.347 590.259L202.397 598.289L203.804 599.711Z" fill="black"/>
<rect x="225" y="600" width="21" height="2" rx="1" transform="rotate(-180 225 600)" fill="black"/>
<path d="M254.347 607.741C254.735 608.134 255.365 608.134 255.754 607.741C256.142 607.349 256.142 606.712 255.754 606.32L254.347 607.741ZM247.101 599L246.397 598.289C246.008 598.682 246.008 599.318 246.397 599.711L247.101 599ZM255.754 591.68C256.142 591.288 256.142 590.651 255.754 590.259C255.365 589.866 254.735 589.866 254.347 590.259L255.754 591.68ZM255.754 606.32L247.804 598.289L246.397 599.711L254.347 607.741L255.754 606.32ZM247.804 599.711L255.754 591.68L254.347 590.259L246.397 598.289L247.804 599.711Z" fill="white"/>
<rect x="269" y="600" width="21" height="2" rx="1" transform="rotate(-180 269 600)" fill="white"/>
<path d="M291.862 594.127C291.863 594.122 291.867 594.118 291.872 594.118H310.13C310.135 594.118 310.139 594.122 310.14 594.127L311.413 609.986C311.414 609.992 311.409 609.997 311.403 609.997H290.597C290.591 609.997 290.586 609.992 290.587 609.986L291.862 594.127Z" stroke="white" stroke-width="2"/>
<path d="M303.833 596.946C303.833 597.499 304.281 597.946 304.833 597.946C305.386 597.946 305.833 597.499 305.833 596.946H303.833ZM296.167 596.946C296.167 597.499 296.614 597.946 297.167 597.946C297.719 597.946 298.167 597.499 298.167 596.946H296.167ZM303.833 591.835V596.946H305.833V591.835H303.833ZM298.167 596.946V591.835H296.167V596.946H298.167ZM301 589.002C302.565 589.002 303.833 590.27 303.833 591.835H305.833C305.833 589.166 303.669 587.002 301 587.002V589.002ZM301 587.002C298.331 587.002 296.167 589.166 296.167 591.835H298.167C298.167 590.27 299.435 589.002 301 589.002V587.002Z" fill="white"/>
<rect x="333" y="590" width="24" height="2" rx="1" fill="white"/>
<rect x="333" y="598" width="18" height="2" rx="1" fill="white"/>
<rect x="333" y="606" width="24" height="2" rx="1" fill="white"/>
<path d="M465.685 609.822C465.586 610.365 465.947 610.886 466.49 610.984C467.034 611.083 467.554 610.722 467.653 610.179L465.685 609.822ZM467.636 606.094L466.696 605.753C466.692 605.763 466.689 605.772 466.686 605.781L467.636 606.094ZM467.78 605.696L466.847 605.335C466.845 605.342 466.842 605.349 466.84 605.355L467.78 605.696ZM486.713 610.179C486.812 610.722 487.332 611.083 487.876 610.984C488.419 610.886 488.78 610.365 488.681 609.822L486.713 610.179ZM486.73 606.094L487.68 605.781C487.677 605.772 487.674 605.763 487.67 605.753L486.73 606.094ZM486.586 605.696L487.526 605.355C487.524 605.349 487.521 605.342 487.519 605.335L486.586 605.696ZM466.686 605.781C466.198 607.264 465.93 608.466 465.685 609.822L467.653 610.179C467.888 608.882 468.135 607.776 468.586 606.406L466.686 605.781ZM477.183 598.814C473.585 598.814 471.28 599.495 469.704 600.765C468.147 602.022 467.462 603.743 466.847 605.335L468.713 606.056C469.345 604.419 469.873 603.199 470.96 602.322C472.03 601.459 473.802 600.814 477.183 600.814V598.814ZM466.84 605.355L466.696 605.753L468.576 606.434L468.72 606.036L466.84 605.355ZM485.78 606.406C486.23 607.776 486.478 608.882 486.713 610.179L488.681 609.822C488.435 608.466 488.167 607.264 487.68 605.781L485.78 606.406ZM477.183 600.814C480.564 600.814 482.336 601.459 483.406 602.322C484.493 603.199 485.02 604.419 485.653 606.056L487.519 605.335C486.903 603.743 486.219 602.022 484.661 600.765C483.086 599.495 480.781 598.814 477.183 598.814V600.814ZM485.646 606.036L485.79 606.434L487.67 605.753L487.526 605.355L485.646 606.036Z" fill="black"/>
<rect x="472.926" y="588" width="8.51428" height="8.51428" rx="4.25714" stroke="black" stroke-width="2"/>
<path d="M347.67 647.375C347.671 647.37 347.674 647.367 347.679 647.367H362.328C362.332 647.367 362.336 647.37 362.336 647.375L363.358 659.991C363.358 659.996 363.355 660 363.35 660H346.655C346.65 660 346.646 659.996 346.647 659.991L347.67 647.375Z" stroke="black" stroke-width="1.96439"/>
<path d="M357.09 649.481C357.09 650.034 357.538 650.481 358.09 650.481C358.643 650.481 359.09 650.034 359.09 649.481H357.09ZM350.915 649.481C350.915 650.034 351.362 650.481 351.915 650.481C352.467 650.481 352.915 650.034 352.915 649.481H350.915ZM357.09 645.092V649.481H359.09V645.092H357.09ZM352.915 649.481V645.092H350.915V649.481H352.915ZM355.002 643.004C356.155 643.004 357.09 643.939 357.09 645.092H359.09C359.09 642.834 357.26 641.004 355.002 641.004V643.004ZM355.002 641.004C352.745 641.004 350.915 642.834 350.915 645.092H352.915C352.915 643.939 353.849 643.004 355.002 643.004V641.004Z" fill="black"/>
<path d="M467.67 647.375C467.671 647.37 467.674 647.367 467.679 647.367H482.328C482.332 647.367 482.336 647.37 482.336 647.375L483.358 659.991C483.358 659.996 483.355 660 483.35 660H466.655C466.65 660 466.646 659.996 466.647 659.991L467.67 647.375Z" stroke="#CCCCCC" stroke-width="2"/>
<path d="M477.09 649.481C477.09 650.034 477.538 650.481 478.09 650.481C478.643 650.481 479.09 650.034 479.09 649.481H477.09ZM470.915 649.481C470.915 650.034 471.362 650.481 471.915 650.481C472.467 650.481 472.915 650.034 472.915 649.481H470.915ZM477.09 645.092V649.481H479.09V645.092H477.09ZM472.915 649.481V645.092H470.915V649.481H472.915ZM475.002 643.004C476.155 643.004 477.09 643.939 477.09 645.092H479.09C479.09 642.834 477.26 641.004 475.002 641.004V643.004ZM475.002 641.004C472.745 641.004 470.915 642.834 470.915 645.092H472.915C472.915 643.939 473.849 643.004 475.002 643.004V641.004Z" fill="#CCCCCC"/>
<path d="M402.649 651.05L403.348 651.765V651.765L402.649 651.05ZM402.649 644.789L403.348 644.073V644.073L402.649 644.789ZM396.235 644.789L395.536 644.073V644.073L396.235 644.789ZM393.765 644.789L393.067 645.504L393.067 645.504L393.765 644.789ZM387.351 644.789L386.652 644.073L387.351 644.789ZM387.351 651.049L388.049 650.334L387.351 651.049ZM394.988 658.503L395.687 657.788L394.988 658.503ZM395.005 658.503L395.703 659.219L395.005 658.503ZM395.011 658.497L395.709 659.213L395.011 658.497ZM394.302 645.312L393.603 646.028L394.302 645.312ZM395.018 658.497L395.717 659.213L395.018 658.497ZM401.951 650.334L394.32 657.782L395.717 659.213L403.348 651.765L401.951 650.334ZM401.951 645.505C403.32 646.841 403.32 648.997 401.951 650.334L403.348 651.765C405.521 649.644 405.521 646.195 403.348 644.073L401.951 645.505ZM396.933 645.505C398.316 644.155 400.568 644.155 401.951 645.505L403.348 644.073C401.188 641.966 397.696 641.966 395.536 644.073L396.933 645.505ZM396.397 646.028L396.933 645.505L395.536 644.073L395 644.597L396.397 646.028ZM395 644.597L394.464 644.073L393.067 645.504L393.603 646.028L395 644.597ZM394.464 644.073C392.304 641.965 388.812 641.965 386.652 644.073L388.049 645.504C389.432 644.155 391.684 644.155 393.067 645.504L394.464 644.073ZM386.652 644.073C384.479 646.194 384.479 649.644 386.652 651.765L388.049 650.334C386.68 648.997 386.68 646.841 388.049 645.504L386.652 644.073ZM386.652 651.765L394.29 659.219L395.687 657.788L388.049 650.334L386.652 651.765ZM395.703 659.219L395.709 659.213L394.312 657.782L394.306 657.788L395.703 659.219ZM394.29 659.219C394.683 659.603 395.31 659.603 395.703 659.219L394.306 657.788C394.69 657.413 395.303 657.413 395.687 657.788L394.29 659.219ZM395.713 657.782C395.324 657.401 394.702 657.401 394.312 657.782L395.709 659.213C395.322 659.591 394.704 659.591 394.316 659.213L395.713 657.782ZM395 644.597V644.597L393.603 646.028C394.38 646.786 395.62 646.786 396.397 646.028L395 644.597ZM394.316 659.213C394.706 659.593 395.327 659.593 395.717 659.213L394.32 657.782C394.707 657.404 395.325 657.403 395.713 657.782L394.316 659.213Z" fill="black"/>
<path d="M391.332 648.257C390.942 648.647 390.942 649.28 391.332 649.671C391.723 650.061 392.356 650.061 392.746 649.671L391.332 648.257ZM396.229 646.188C396.62 645.797 396.62 645.164 396.229 644.773C395.839 644.383 395.206 644.383 394.815 644.773L396.229 646.188ZM392.746 649.671L396.229 646.188L394.815 644.773L391.332 648.257L392.746 649.671Z" fill="black"/>
<path d="M522.649 651.05L523.348 651.765L523.348 651.765L522.649 651.05ZM522.649 644.789L523.348 644.073L523.348 644.073L522.649 644.789ZM516.235 644.789L516.933 645.505L516.235 644.789ZM513.765 644.789L513.067 645.504L513.067 645.504L513.765 644.789ZM507.351 644.789L508.049 645.504L507.351 644.789ZM507.351 651.049L506.652 651.765L506.652 651.765L507.351 651.049ZM514.988 658.503L514.29 659.219L514.988 658.503ZM515.005 658.503L515.703 659.219L515.005 658.503ZM515.011 658.497L515.709 659.213L515.011 658.497ZM515.699 645.312L515 644.597L515.699 645.312ZM515.018 658.497L515.717 659.213L515.018 658.497ZM521.951 650.334L514.32 657.782L515.717 659.213L523.348 651.765L521.951 650.334ZM521.951 645.505C523.32 646.841 523.32 648.997 521.951 650.334L523.348 651.765C525.521 649.644 525.521 646.195 523.348 644.073L521.951 645.505ZM516.933 645.505C518.316 644.155 520.568 644.155 521.951 645.505L523.348 644.073C521.188 641.966 517.696 641.966 515.536 644.073L516.933 645.505ZM516.397 646.028L516.933 645.505L515.536 644.073L515 644.597L516.397 646.028ZM515 644.597L514.464 644.073L513.067 645.504L513.603 646.028L515 644.597ZM514.464 644.073C512.304 641.965 508.812 641.965 506.652 644.073L508.049 645.504C509.432 644.155 511.684 644.155 513.067 645.504L514.464 644.073ZM506.652 644.073C504.479 646.194 504.479 649.644 506.652 651.765L508.049 650.334C506.68 648.997 506.68 646.841 508.049 645.504L506.652 644.073ZM506.652 651.765L514.29 659.219L515.687 657.788L508.049 650.334L506.652 651.765ZM515.703 659.219L515.709 659.213L514.312 657.782L514.306 657.788L515.703 659.219ZM514.29 659.219C514.683 659.603 515.31 659.603 515.703 659.219L514.306 657.788C514.69 657.413 515.303 657.413 515.687 657.788L514.29 659.219ZM515.713 657.782C515.324 657.401 514.702 657.401 514.312 657.782L515.709 659.213C515.322 659.591 514.704 659.591 514.316 659.213L515.713 657.782ZM515 644.597L515 644.597L513.603 646.028C514.38 646.786 515.62 646.786 516.397 646.028L515 644.597ZM514.316 659.213C514.706 659.593 515.327 659.593 515.717 659.213L514.32 657.782C514.707 657.404 515.325 657.403 515.713 657.782L514.316 659.213Z" fill="#CCCCCC"/>
<path d="M511.332 648.257C510.942 648.647 510.942 649.28 511.332 649.671C511.723 650.061 512.356 650.061 512.746 649.671L511.332 648.257ZM516.229 646.188C516.62 645.797 516.62 645.164 516.229 644.773C515.839 644.383 515.206 644.383 514.815 644.773L516.229 646.188ZM512.746 649.671L516.229 646.188L514.815 644.773L511.332 648.257L512.746 649.671Z" fill="#CCCCCC"/>
<circle cx="433" cy="649" r="7" stroke="black" stroke-width="2"/>
<path d="M438 654L443.746 659.746" stroke="black" stroke-width="2" stroke-linecap="round"/>
<g clip-path="url(#clip6_2773_3212)">
<path d="M547.604 647.574L553.104 643.088C554.208 642.187 555.792 642.187 556.896 643.088L562.396 647.574C563.095 648.144 563.5 648.998 563.5 649.899V660H546.5V649.899C546.5 648.998 546.905 648.144 547.604 647.574Z" stroke="black" stroke-width="2" stroke-miterlimit="10" stroke-linecap="square"/>
<path d="M555 654L555 660" stroke="black" stroke-width="2" stroke-linecap="round"/>
</g>
<path d="M23.8439 330.137C23.6434 329.947 23.3269 329.956 23.137 330.156C22.9471 330.357 22.9557 330.673 23.1561 330.863L23.8439 330.137ZM28.25 335L28.5939 335.363L28.977 335L28.5939 334.637L28.25 335ZM23.1561 339.137C22.9557 339.327 22.9471 339.643 23.137 339.844C23.3269 340.044 23.6434 340.053 23.8439 339.863L23.1561 339.137ZM23.1561 330.863L27.9061 335.363L28.5939 334.637L23.8439 330.137L23.1561 330.863ZM27.9061 334.637L23.1561 339.137L23.8439 339.863L28.5939 335.363L27.9061 334.637Z" fill="black"/>
<path d="M443.844 330.137C443.643 329.947 443.327 329.956 443.137 330.156C442.947 330.357 442.956 330.673 443.156 330.863L443.844 330.137ZM448.25 335L448.594 335.363L448.977 335L448.594 334.637L448.25 335ZM443.156 339.137C442.956 339.327 442.947 339.643 443.137 339.844C443.327 340.044 443.643 340.053 443.844 339.863L443.156 339.137ZM443.156 330.863L447.906 335.363L448.594 334.637L443.844 330.137L443.156 330.863ZM447.906 334.637L443.156 339.137L443.844 339.863L448.594 335.363L447.906 334.637Z" fill="#CCCCCC"/>
<path d="M533.844 330.137C533.643 329.947 533.327 329.956 533.137 330.156C532.947 330.357 532.956 330.673 533.156 330.863L533.844 330.137ZM538.25 335L538.594 335.363L538.977 335L538.594 334.637L538.25 335ZM533.156 339.137C532.956 339.327 532.947 339.643 533.137 339.844C533.327 340.044 533.643 340.053 533.844 339.863L533.156 339.137ZM533.156 330.863L537.906 335.363L538.594 334.637L533.844 330.137L533.156 330.863ZM537.906 334.637L533.156 339.137L533.844 339.863L538.594 335.363L537.906 334.637Z" fill="#707070"/>
<path d="M56.1561 339.863C56.3566 340.053 56.6731 340.044 56.863 339.844C57.0529 339.643 57.0443 339.327 56.8439 339.137L56.1561 339.863ZM51.75 335L51.4061 334.637L51.023 335L51.4061 335.363L51.75 335ZM56.8439 330.863C57.0443 330.673 57.0529 330.357 56.863 330.156C56.6731 329.956 56.3566 329.947 56.1561 330.137L56.8439 330.863ZM56.8439 339.137L52.0939 334.637L51.4061 335.363L56.1561 339.863L56.8439 339.137ZM52.0939 335.363L56.8439 330.863L56.1561 330.137L51.4061 334.637L52.0939 335.363Z" fill="black"/>
<path d="M380.137 332.969C379.947 332.768 379.956 332.452 380.156 332.262C380.357 332.072 380.673 332.081 380.863 332.281L380.137 332.969ZM385 337.375L385.363 337.719L385 338.102L384.637 337.719L385 337.375ZM389.137 332.281C389.327 332.081 389.643 332.072 389.844 332.262C390.044 332.452 390.053 332.768 389.863 332.969L389.137 332.281ZM380.863 332.281L385.363 337.031L384.637 337.719L380.137 332.969L380.863 332.281ZM384.637 337.031L389.137 332.281L389.863 332.969L385.363 337.719L384.637 337.031Z" fill="black"/>
<path d="M470.137 332.969C469.947 332.768 469.956 332.452 470.156 332.262C470.357 332.072 470.673 332.081 470.863 332.281L470.137 332.969ZM475 337.375L475.363 337.719L475 338.102L474.637 337.719L475 337.375ZM479.137 332.281C479.327 332.081 479.643 332.072 479.844 332.262C480.044 332.452 480.053 332.768 479.863 332.969L479.137 332.281ZM470.863 332.281L475.363 337.031L474.637 337.719L470.137 332.969L470.863 332.281ZM474.637 337.031L479.137 332.281L479.863 332.969L475.363 337.719L474.637 337.031Z" fill="white"/>
<path d="M419.863 337.031C420.053 337.232 420.044 337.548 419.844 337.738C419.643 337.928 419.327 337.919 419.137 337.719L419.863 337.031ZM415 332.625L414.637 332.281L415 331.898L415.363 332.281L415 332.625ZM410.863 337.719C410.673 337.919 410.357 337.928 410.156 337.738C409.956 337.548 409.947 337.232 410.137 337.031L410.863 337.719ZM419.137 337.719L414.637 332.969L415.363 332.281L419.863 337.031L419.137 337.719ZM415.363 332.969L410.863 337.719L410.137 337.031L414.637 332.281L415.363 332.969Z" fill="black"/>
<path d="M509.863 337.031C510.053 337.232 510.044 337.548 509.844 337.738C509.643 337.928 509.327 337.919 509.137 337.719L509.863 337.031ZM505 332.625L504.637 332.281L505 331.898L505.363 332.281L505 332.625ZM500.863 337.719C500.673 337.919 500.357 337.928 500.156 337.738C499.956 337.548 499.947 337.232 500.137 337.031L500.863 337.719ZM509.137 337.719L504.637 332.969L505.363 332.281L509.863 337.031L509.137 337.719ZM505.363 332.969L500.863 337.719L500.137 337.031L504.637 332.281L505.363 332.969Z" fill="white"/>
<path d="M81.3681 337.879C81.1729 338.074 81.1729 338.391 81.3681 338.586C81.5634 338.781 81.88 338.781 82.0752 338.586L81.3681 337.879ZM88.5421 332.119C88.7374 331.924 88.7374 331.607 88.5421 331.412C88.3469 331.217 88.0303 331.217 87.835 331.412L88.5421 332.119ZM87.9248 338.588C88.12 338.783 88.4366 338.783 88.6319 338.588C88.8271 338.393 88.8271 338.076 88.6319 337.881L87.9248 338.588ZM82.165 331.414C81.9697 331.219 81.6531 331.219 81.4579 331.414C81.2626 331.609 81.2626 331.926 81.4579 332.121L82.165 331.414ZM82.0752 338.586L88.5421 332.119L87.835 331.412L81.3681 337.879L82.0752 338.586ZM88.6319 337.881L82.165 331.414L81.4579 332.121L87.9248 338.588L88.6319 337.881Z" fill="black"/>
<path d="M201.368 337.879C201.173 338.074 201.173 338.391 201.368 338.586C201.563 338.781 201.88 338.781 202.075 338.586L201.368 337.879ZM208.542 332.119C208.737 331.924 208.737 331.607 208.542 331.412C208.347 331.217 208.03 331.217 207.835 331.412L208.542 332.119ZM207.925 338.588C208.12 338.783 208.437 338.783 208.632 338.588C208.827 338.393 208.827 338.076 208.632 337.881L207.925 338.588ZM202.165 331.414C201.97 331.219 201.653 331.219 201.458 331.414C201.263 331.609 201.263 331.926 201.458 332.121L202.165 331.414ZM202.075 338.586L208.542 332.119L207.835 331.412L201.368 337.879L202.075 338.586ZM208.632 337.881L202.165 331.414L201.458 332.121L207.925 338.588L208.632 337.881Z" fill="#909090"/>
<line x1="111" y1="335" x2="119" y2="335" stroke="black" stroke-linecap="round"/>
<line x1="115" y1="331" x2="115" y2="339" stroke="black" stroke-linecap="round"/>
<line x1="231" y1="335" x2="239" y2="335" stroke="#909090" stroke-linecap="round"/>
<line x1="235" y1="331" x2="235" y2="339" stroke="#909090" stroke-linecap="round"/>
<line x1="351" y1="335" x2="359" y2="335" stroke="#CCCCCC" stroke-linecap="round"/>
<line x1="355" y1="331" x2="355" y2="339" stroke="#CCCCCC" stroke-linecap="round"/>
<line x1="141" y1="335" x2="149" y2="335" stroke="black" stroke-linecap="round"/>
<line x1="261" y1="335" x2="269" y2="335" stroke="#909090" stroke-linecap="round"/>
<line x1="321" y1="335" x2="329" y2="335" stroke="#CCCCCC" stroke-linecap="round"/>
<line x1="171" y1="333" x2="179" y2="333" stroke="black" stroke-linecap="round"/>
<line x1="171" y1="337" x2="179" y2="337" stroke="black" stroke-linecap="round"/>
<line x1="291" y1="333" x2="299" y2="333" stroke="#909090" stroke-linecap="round"/>
<line x1="291" y1="337" x2="299" y2="337" stroke="#909090" stroke-linecap="round"/>
<path fill-rule="evenodd" clip-rule="evenodd" d="M27.6263 279.332C27.4428 279.126 27.4614 278.81 27.6678 278.626C27.8742 278.443 28.1902 278.461 28.3737 278.668L32.3737 283.168L32.669 283.5L32.3737 283.832L28.3737 288.332C28.1902 288.539 27.8742 288.557 27.6678 288.374C27.4614 288.19 27.4428 287.874 27.6263 287.668L30.8866 284L20.5 284C20.2239 284 20 283.776 20 283.5C20 283.224 20.2239 283 20.5 283L30.8866 283L27.6263 279.332Z" fill="black"/>
<path fill-rule="evenodd" clip-rule="evenodd" d="M353.626 278.332C353.443 278.126 353.461 277.81 353.668 277.626C353.874 277.443 354.19 277.461 354.374 277.668L358.374 282.168L358.669 282.5L358.374 282.832L354.374 287.332C354.19 287.539 353.874 287.557 353.668 287.374C353.461 287.19 353.443 286.874 353.626 286.668L356.887 283L346.5 283C346.224 283 346 282.776 346 282.5C346 282.224 346.224 282 346.5 282L356.887 282L353.626 278.332Z" fill="#772480"/>
<path d="M54.3539 277.646C54.1587 277.451 53.8421 277.451 53.6468 277.646C53.4516 277.842 53.4516 278.158 53.6468 278.354L54.3539 277.646ZM64.6468 289.354C64.8421 289.549 65.1587 289.549 65.3539 289.354C65.5492 289.158 65.5492 288.842 65.3539 288.646L64.6468 289.354ZM53.6468 278.354L64.6468 289.354L65.3539 288.646L54.3539 277.646L53.6468 278.354Z" fill="black"/>
<path d="M64.6464 277.646C64.8417 277.451 65.1583 277.451 65.3536 277.646C65.5488 277.842 65.5488 278.158 65.3536 278.354L64.6464 277.646ZM54.3536 289.354C54.1583 289.549 53.8417 289.549 53.6464 289.354C53.4512 289.158 53.4512 288.842 53.6464 288.646L54.3536 289.354ZM65.3536 278.354L54.3536 289.354L53.6464 288.646L64.6464 277.646L65.3536 278.354Z" fill="black"/>
<path d="M155 277C155 276.724 154.776 276.5 154.5 276.5C154.224 276.5 154 276.724 154 277H155ZM154 288C154 288.276 154.224 288.5 154.5 288.5C154.776 288.5 155 288.276 155 288H154ZM154 277V288H155V277H154Z" fill="black"/>
<path d="M160 282C160.276 282 160.5 282.224 160.5 282.5C160.5 282.776 160.276 283 160 283V282ZM149 283C148.724 283 148.5 282.776 148.5 282.5C148.5 282.224 148.724 282 149 282V283ZM160 283H149V282H160V283Z" fill="black"/>
<path d="M221 277C221 276.724 220.776 276.5 220.5 276.5C220.224 276.5 220 276.724 220 277H221ZM220 288C220 288.276 220.224 288.5 220.5 288.5C220.776 288.5 221 288.276 221 288H220ZM220 277V288H221V277H220Z" fill="#CCCCCC"/>
<path d="M226 282C226.276 282 226.5 282.224 226.5 282.5C226.5 282.776 226.276 283 226 283V282ZM215 283C214.724 283 214.5 282.776 214.5 282.5C214.5 282.224 214.724 282 215 282V283ZM226 283H215V282H226V283Z" fill="#CCCCCC"/>
<path d="M193 282C193.276 282 193.5 282.224 193.5 282.5C193.5 282.776 193.276 283 193 283V282ZM182 283C181.724 283 181.5 282.776 181.5 282.5C181.5 282.224 181.724 282 182 282V283ZM193 283H182V282H193V283Z" fill="black"/>
<path d="M391 282C391.276 282 391.5 282.224 391.5 282.5C391.5 282.776 391.276 283 391 283V282ZM380 283C379.724 283 379.5 282.776 379.5 282.5C379.5 282.224 379.724 282 380 282V283ZM391 283H380V282H391V283Z" fill="#772480"/>
<path d="M259 282C259.276 282 259.5 282.224 259.5 282.5C259.5 282.776 259.276 283 259 283V282ZM248 283C247.724 283 247.5 282.776 247.5 282.5C247.5 282.224 247.724 282 248 282V283ZM259 283H248V282H259V283Z" fill="#CCCCCC"/>
<path d="M86.5 283.692L90.3919 288L98.5 280" stroke="black" stroke-linecap="round" stroke-linejoin="round"/>
<path d="M131.854 281.354C132.049 281.158 132.049 280.842 131.854 280.646C131.658 280.451 131.342 280.451 131.146 280.646L131.854 281.354ZM125.5 287L125.146 287.354L125.5 287.707L125.854 287.354L125.5 287ZM119.854 280.646C119.658 280.451 119.342 280.451 119.146 280.646C118.951 280.842 118.951 281.158 119.146 281.354L119.854 280.646ZM131.146 280.646L125.146 286.646L125.854 287.354L131.854 281.354L131.146 280.646ZM125.854 286.646L119.854 280.646L119.146 281.354L125.146 287.354L125.854 286.646Z" fill="black"/>
<path d="M283.854 276.146C283.658 275.951 283.342 275.951 283.146 276.146C282.951 276.342 282.951 276.658 283.146 276.854L283.854 276.146ZM289.5 282.5L289.854 282.854L290.207 282.5L289.854 282.146L289.5 282.5ZM283.146 288.146C282.951 288.342 282.951 288.658 283.146 288.854C283.342 289.049 283.658 289.049 283.854 288.854L283.146 288.146ZM283.146 276.854L289.146 282.854L289.854 282.146L283.854 276.146L283.146 276.854ZM289.146 282.146L283.146 288.146L283.854 288.854L289.854 282.854L289.146 282.146Z" fill="black"/>
<path d="M322.146 276.146C322.342 275.951 322.658 275.951 322.854 276.146C323.049 276.342 323.049 276.658 322.854 276.854L322.146 276.146ZM316.5 282.5L316.146 282.854L315.793 282.5L316.146 282.146L316.5 282.5ZM322.854 288.146C323.049 288.342 323.049 288.658 322.854 288.854C322.658 289.049 322.342 289.049 322.146 288.854L322.854 288.146ZM322.854 276.854L316.854 282.854L316.146 282.146L322.146 276.146L322.854 276.854ZM316.854 282.146L322.854 288.146L322.146 288.854L316.146 282.854L316.854 282.146Z" fill="black"/>
<path d="M28.5 224C28.5 223.724 28.2761 223.5 28 223.5C27.7239 223.5 27.5 223.724 27.5 224H28.5ZM27.5 238C27.5 238.276 27.7239 238.5 28 238.5C28.2761 238.5 28.5 238.276 28.5 238H27.5ZM27.5 224V238H28.5V224H27.5Z" fill="black"/>
<path d="M22.6464 228.646C22.4512 228.842 22.4512 229.158 22.6464 229.354C22.8417 229.549 23.1583 229.549 23.3536 229.354L22.6464 228.646ZM28 224L28.3536 223.646L28 223.293L27.6464 223.646L28 224ZM32.6464 229.354C32.8417 229.549 33.1583 229.549 33.3536 229.354C33.5488 229.158 33.5488 228.842 33.3536 228.646L32.6464 229.354ZM23.3536 229.354L28.3536 224.354L27.6464 223.646L22.6464 228.646L23.3536 229.354ZM27.6464 224.354L32.6464 229.354L33.3536 228.646L28.3536 223.646L27.6464 224.354Z" fill="black"/>
<line x1="60.5" y1="174" x2="79.5" y2="174" stroke="black" stroke-linecap="round"/>
<line x1="70" y1="183.5" x2="70" y2="164.5" stroke="black" stroke-linecap="round"/>
<line x1="540.5" y1="174" x2="559.5" y2="174" stroke="#830890" stroke-linecap="round"/>
<line x1="550" y1="183.5" x2="550" y2="164.5" stroke="#830890" stroke-linecap="round"/>
<line x1="420.5" y1="174" x2="439.5" y2="174" stroke="black" stroke-linecap="round"/>
<line x1="580.5" y1="174" x2="599.5" y2="174" stroke="#830890" stroke-linecap="round"/>
<path d="M39 173.512L31.0302 181.482C28.766 183.746 24.9623 183.746 22.6981 181.482C20.434 179.218 20.434 175.414 22.6981 173.15L29.7623 166.086C31.3925 164.456 33.9283 164.456 35.5585 166.086C37.1887 167.716 37.1887 170.252 35.5585 171.882L29.0377 178.312C28.1321 179.218 26.683 179.218 25.8679 178.312C24.9623 177.407 24.9623 175.958 25.8679 175.143L31.3019 169.709" stroke="black" stroke-linecap="round" stroke-linejoin="round"/>
<g clip-path="url(#clip7_2773_3212)">
<rect x="100.5" y="166" width="19" height="17" rx="2.5" stroke="black"/>
<path d="M104.5 164.5V167.5" stroke="black" stroke-linecap="round"/>
<path d="M115.5 164.5V167.5" stroke="black" stroke-linecap="round"/>
<path d="M101 171L119 171" stroke="black" stroke-linecap="round"/>
</g>
<g clip-path="url(#clip8_2773_3212)">
<rect x="140.5" y="165" width="19" height="18" rx="2.5" stroke="black"/>
<path d="M140.236 177.894C140.023 178.071 139.995 178.386 140.172 178.598C140.348 178.81 140.664 178.839 140.876 178.662L140.236 177.894ZM159.19 180.375C159.428 180.516 159.735 180.437 159.875 180.199C160.015 179.962 159.937 179.655 159.699 179.514L159.19 180.375ZM146.681 173.174L146.36 172.79L146.681 173.174ZM140.876 178.662L147.001 173.558L146.36 172.79L140.236 177.894L140.876 178.662ZM147.575 173.512L159.19 180.375L159.699 179.514L148.084 172.651L147.575 173.512ZM147.001 173.558C147.163 173.423 147.393 173.404 147.575 173.512L148.084 172.651C147.538 172.328 146.848 172.384 146.36 172.79L147.001 173.558Z" fill="black"/>
<circle cx="154.444" cy="170.055" r="1.72222" stroke="black"/>
</g>
<rect x="182" y="170.5" width="16" height="13" rx="2.5" stroke="black"/>
<path d="M190 175.276L190 178.724" stroke="black" stroke-linecap="round"/>
<path d="M185.521 170.071C185.521 169.594 185.521 168.849 185.521 168.849C185.521 168.849 185.521 168.849 185.521 168.849C185.521 166.447 187.526 164.5 190 164.5C191.989 164.5 193.675 165.758 194.26 167.5" stroke="black" stroke-linecap="round"/>
<rect x="222" y="170.5" width="16" height="13" rx="2.5" stroke="black"/>
<path d="M230 175.276L230 178.724" stroke="black" stroke-linecap="round"/>
<path d="M234.5 171V169C234.5 166.515 232.485 164.5 230 164.5V164.5C227.515 164.5 225.5 166.515 225.5 169V171" stroke="black"/>
<path d="M261 170C261 168.895 261.895 168 263 168H274C275.105 168 276 168.895 276 170V181C276 182.105 275.105 183 274 183H263C261.895 183 261 182.105 261 181V170Z" stroke="black"/>
<path d="M265 165H276C277.657 165 279 166.343 279 168V179" stroke="black" stroke-linecap="round"/>
<g clip-path="url(#clip9_2773_3212)">
<mask id="path-150-inside-3_2773_3212" fill="white">
<path d="M318.38 166.619C320.539 168.779 320.539 172.28 318.38 174.439L310.711 182.109C310.339 182.481 309.748 182.5 309.353 182.167C309.33 182.148 309.308 182.128 309.287 182.107L301.619 174.439C299.46 172.28 299.46 168.779 301.619 166.619C303.778 164.46 307.279 164.46 309.439 166.619L310 167.18L310.561 166.619C312.72 164.46 316.221 164.46 318.38 166.619Z"/>
</mask>
<path d="M310.764 167.833C310.959 167.638 310.959 167.321 310.764 167.126C310.569 166.931 310.252 166.931 310.057 167.126L310.764 167.833ZM306.542 170.64C306.347 170.836 306.347 171.152 306.542 171.348C306.738 171.543 307.054 171.543 307.249 171.348L306.542 170.64ZM310.057 167.126L306.542 170.64L307.249 171.348L310.764 167.833L310.057 167.126ZM318.38 174.439L317.673 173.732L318.38 174.439ZM318.38 166.619L319.087 165.912V165.912L318.38 166.619ZM310.711 182.109L311.418 182.816H311.418L310.711 182.109ZM309.353 182.167L309.997 181.403L309.995 181.401L309.353 182.167ZM309.287 182.107L308.58 182.814L309.287 182.107ZM301.619 174.439L302.326 173.732H302.326L301.619 174.439ZM301.619 166.619L300.912 165.912L300.912 165.912L301.619 166.619ZM309.439 166.619L310.146 165.912V165.912L309.439 166.619ZM310 167.18L309.293 167.888L310 168.595L310.707 167.888L310 167.18ZM310.561 166.619L309.853 165.912V165.912L310.561 166.619ZM319.087 175.146C321.637 172.596 321.637 168.462 319.087 165.912L317.673 167.327C319.442 169.095 319.442 171.963 317.673 173.732L319.087 175.146ZM311.418 182.816L319.087 175.146L317.673 173.732L310.004 181.401L311.418 182.816ZM308.708 182.932C309.497 183.597 310.675 183.558 311.418 182.816L310.004 181.401C310.003 181.402 310.003 181.402 310.002 181.403C310.002 181.403 310.002 181.403 310.002 181.403C310.002 181.403 310.002 181.403 310.002 181.403C310.002 181.403 310.002 181.403 310.002 181.403C310.002 181.403 310.002 181.403 310 181.403C309.999 181.403 309.998 181.403 309.997 181.403C309.997 181.403 309.997 181.403 309.998 181.403C309.998 181.403 309.998 181.403 309.997 181.403L308.708 182.932ZM309.995 181.401C309.995 181.401 309.995 181.4 309.994 181.4L308.58 182.814C308.622 182.856 308.665 182.896 308.71 182.933L309.995 181.401ZM309.994 181.4L302.326 173.732L300.912 175.146L308.58 182.814L309.994 181.4ZM302.326 173.732C300.557 171.963 300.557 169.095 302.326 167.327L300.912 165.912C298.362 168.462 298.362 172.596 300.912 175.146L302.326 173.732ZM302.326 167.327C304.095 165.558 306.963 165.558 308.732 167.327L310.146 165.912C307.596 163.363 303.462 163.363 300.912 165.912L302.326 167.327ZM308.732 167.327L309.293 167.888L310.707 166.473L310.146 165.912L308.732 167.327ZM309.853 165.912L309.293 166.473L310.707 167.888L311.268 167.327L309.853 165.912ZM319.087 165.912C316.537 163.363 312.403 163.363 309.853 165.912L311.268 167.327C313.036 165.558 315.904 165.558 317.673 167.327L319.087 165.912Z" fill="black" mask="url(#path-150-inside-3_2773_3212)"/>
</g>
<mask id="path-152-inside-4_2773_3212" fill="white">
<path d="M342.044 169.46C342.065 169.2 342.282 169 342.542 169H357.369C357.63 169 357.847 169.2 357.868 169.46L358.912 182.46C358.936 182.751 358.706 183 358.414 183H341.498C341.206 183 340.976 182.751 340.999 182.46L342.044 169.46Z"/>
</mask>
<path d="M357.868 169.46L358.865 169.38L357.868 169.46ZM342.542 170H357.369V168H342.542V170ZM356.871 169.54L357.916 182.54L359.909 182.38L358.865 169.38L356.871 169.54ZM358.414 182H341.498V184H358.414V182ZM341.996 182.54L343.041 169.54L341.047 169.38L340.002 182.38L341.996 182.54ZM341.498 182C341.79 182 342.019 182.249 341.996 182.54L340.002 182.38C339.932 183.253 340.622 184 341.498 184V182ZM357.916 182.54C357.892 182.249 358.122 182 358.414 182V184C359.29 184 359.979 183.253 359.909 182.38L357.916 182.54ZM357.369 170C357.109 170 356.892 169.8 356.871 169.54L358.865 169.38C358.802 168.601 358.151 168 357.369 168V170ZM342.542 168C341.76 168 341.11 168.601 341.047 169.38L343.041 169.54C343.02 169.8 342.803 170 342.542 170V168Z" fill="black" mask="url(#path-152-inside-4_2773_3212)"/>
<path d="M352.5 172C352.5 172.276 352.724 172.5 353 172.5C353.276 172.5 353.5 172.276 353.5 172H352.5ZM346.5 172C346.5 172.276 346.724 172.5 347 172.5C347.276 172.5 347.5 172.276 347.5 172H346.5ZM352.5 168V172H353.5V168H352.5ZM347.5 172V168H346.5V172H347.5ZM350 165.5C351.38 165.5 352.5 166.619 352.5 168H353.5C353.5 166.067 351.933 164.5 350 164.5V165.5ZM350 164.5C348.067 164.5 346.5 166.067 346.5 168H347.5C347.5 166.619 348.619 165.5 350 165.5V164.5Z" fill="black"/>
<path d="M399 177.5C399 177.224 398.776 177 398.5 177C398.224 177 398 177.224 398 177.5H399ZM382 177.5C382 177.224 381.776 177 381.5 177C381.224 177 381 177.224 381 177.5H382ZM398 177.5V180.5H399V177.5H398ZM396.5 182H383.5V183H396.5V182ZM382 180.5V177.5H381V180.5H382ZM383.5 182C382.672 182 382 181.328 382 180.5H381C381 181.881 382.119 183 383.5 183V182ZM398 180.5C398 181.328 397.328 182 396.5 182V183C397.881 183 399 181.881 399 180.5H398Z" fill="black"/>
<path d="M394 174L390 178L386 174" stroke="black" stroke-linecap="round"/>
<line x1="390" y1="165.5" x2="390" y2="177.5" stroke="black" stroke-linecap="round"/>
<path d="M463.5 176.5H462C461.172 176.5 460.5 175.828 460.5 175V166C460.5 165.172 461.172 164.5 462 164.5H471C471.828 164.5 472.5 165.172 472.5 166V167.5" stroke="black" stroke-linecap="round" stroke-linejoin="round"/>
<path d="M478 171.5H469C468.172 171.5 467.5 172.172 467.5 173V182C467.5 182.828 468.172 183.5 469 183.5H478C478.828 183.5 479.5 182.828 479.5 182V173C479.5 172.172 478.828 171.5 478 171.5Z" stroke="black" stroke-linecap="round" stroke-linejoin="round"/>
<path d="M519.354 169.354C519.549 169.158 519.549 168.842 519.354 168.646C519.158 168.451 518.842 168.451 518.646 168.646L519.354 169.354ZM510 178L509.646 178.354L510 178.707L510.354 178.354L510 178ZM501.354 168.646C501.158 168.451 500.842 168.451 500.646 168.646C500.451 168.842 500.451 169.158 500.646 169.354L501.354 168.646ZM518.646 168.646L509.646 177.646L510.354 178.354L519.354 169.354L518.646 168.646ZM510.354 177.646L501.354 168.646L500.646 169.354L509.646 178.354L510.354 177.646Z" fill="black"/>
<path d="M626.546 172.273L633.455 168.818" stroke="black" stroke-linecap="round" stroke-linejoin="round"/>
<path d="M626.546 175.728L633.455 179.182" stroke="black" stroke-linecap="round" stroke-linejoin="round"/>
<path d="M623.523 177.023C625.192 177.023 626.546 175.67 626.546 174C626.546 172.331 625.192 170.978 623.523 170.978C621.853 170.978 620.5 172.331 620.5 174C620.5 175.67 621.853 177.023 623.523 177.023Z" stroke="black" stroke-linecap="round" stroke-linejoin="round"/>
<path d="M636.477 170.546C638.147 170.546 639.5 169.192 639.5 167.523C639.5 165.853 638.147 164.5 636.477 164.5C634.808 164.5 633.454 165.853 633.454 167.523C633.454 169.192 634.808 170.546 636.477 170.546Z" stroke="black" stroke-linecap="round" stroke-linejoin="round"/>
<path d="M636.477 183.501C638.147 183.501 639.5 182.147 639.5 180.478C639.5 178.808 638.147 177.455 636.477 177.455C634.808 177.455 633.454 178.808 633.454 180.478C633.454 182.147 634.808 183.501 636.477 183.501Z" stroke="black" stroke-linecap="round" stroke-linejoin="round"/>
<path d="M660.769 174.296L666.757 180.923L679.231 168.615" stroke="black" stroke-linecap="round" stroke-linejoin="round"/>
<path d="M701 165V164.5C700.724 164.5 700.5 164.724 700.5 165H701ZM704 165.5C704.276 165.5 704.5 165.276 704.5 165C704.5 164.724 704.276 164.5 704 164.5V165.5ZM700.5 168C700.5 168.276 700.724 168.5 701 168.5C701.276 168.5 701.5 168.276 701.5 168H700.5ZM701 165.5H704V164.5H701V165.5ZM701.5 168V165H700.5V168H701.5Z" fill="black"/>
<path d="M719 183V183.5C719.276 183.5 719.5 183.276 719.5 183H719ZM716 182.5C715.724 182.5 715.5 182.724 715.5 183C715.5 183.276 715.724 183.5 716 183.5V182.5ZM719.5 180C719.5 179.724 719.276 179.5 719 179.5C718.724 179.5 718.5 179.724 718.5 180H719.5ZM719 182.5H716V183.5H719V182.5ZM718.5 180V183H719.5V180H718.5Z" fill="black"/>
<path d="M719 165V164.5C719.276 164.5 719.5 164.724 719.5 165H719ZM716 165.5C715.724 165.5 715.5 165.276 715.5 165C715.5 164.724 715.724 164.5 716 164.5V165.5ZM719.5 168C719.5 168.276 719.276 168.5 719 168.5C718.724 168.5 718.5 168.276 718.5 168H719.5ZM719 165.5H716V164.5H719V165.5ZM718.5 168V165H719.5V168H718.5Z" fill="black"/>
<path d="M701 183V183.5C700.724 183.5 700.5 183.276 700.5 183H701ZM704 182.5C704.276 182.5 704.5 182.724 704.5 183C704.5 183.276 704.276 183.5 704 183.5V182.5ZM700.5 180C700.5 179.724 700.724 179.5 701 179.5C701.276 179.5 701.5 179.724 701.5 180H700.5ZM701 182.5H704V183.5H701V182.5ZM701.5 180V183H700.5V180H701.5Z" fill="black"/>
<path d="M711.475 175.475C710.108 176.842 707.892 176.842 706.525 175.475L705.818 176.182C707.575 177.939 710.425 177.939 712.182 176.182L711.475 175.475ZM706.525 175.475C705.158 174.108 705.158 171.892 706.525 170.525L705.818 169.818C704.061 171.575 704.061 174.425 705.818 176.182L706.525 175.475ZM706.525 170.525C707.892 169.158 710.108 169.158 711.475 170.525L712.182 169.818C710.425 168.061 707.575 168.061 705.818 169.818L706.525 170.525ZM711.475 170.525C712.842 171.892 712.842 174.108 711.475 175.475L712.182 176.182C713.939 174.425 713.939 171.575 712.182 169.818L711.475 170.525Z" fill="black"/>
<path d="M712 176L715.182 179.182" stroke="black" stroke-linecap="round"/>
<line x1="21" y1="112" x2="43" y2="112" stroke="black" stroke-linecap="round"/>
<line x1="32" y1="123" x2="32" y2="101" stroke="black" stroke-linecap="round"/>
<line x1="109" y1="112" x2="131" y2="112" stroke="#772480" stroke-linecap="round"/>
<line x1="120" y1="123" x2="120" y2="101" stroke="#772480" stroke-linecap="round"/>
<line x1="153" y1="111.5" x2="175" y2="111.5" stroke="#772480" stroke-linecap="round"/>
<line x1="65" y1="111.5" x2="87" y2="111.5" stroke="black" stroke-linecap="round"/>
<g clip-path="url(#clip10_2773_3212)">
<path d="M48.0073 24.6499L50.9949 27.6375C51.7955 28.4382 51.7955 29.7362 50.9949 30.5369L30.1084 51.4234L23.1008 53.9298C22.2872 54.2207 21.4984 53.4411 21.78 52.6242L24.2236 45.5343L45.1079 24.6499C45.9086 23.8493 47.2067 23.8493 48.0073 24.6499Z" stroke="#333333"/>
<path d="M42.9299 26.8359C45.3219 29.2279 46.663 30.569 49.0549 32.9609" stroke="#333333"/>
<path d="M32.2863 54.2539L51.4758 54.2539" stroke="#333333" stroke-linecap="round"/>
</g>
<g clip-path="url(#clip11_2773_3212)">
<path fill-rule="evenodd" clip-rule="evenodd" d="M187.958 34.9956L183.934 37.6129C183.888 37.6426 183.847 37.6754 183.81 37.7109C183.236 38.1684 182.853 38.8726 182.853 39.7032V53.4843C182.853 54.8941 183.996 56.037 185.406 56.037H212.635C214.045 56.037 215.188 54.8941 215.188 53.4843V39.7033C215.188 38.7763 214.711 38.0068 214.024 37.5618L210.082 34.875V35.9047L213.545 38.2649L213.553 38.2704L213.561 38.2757C214.023 38.5748 214.337 39.0842 214.337 39.7033V53.4843C214.337 54.4242 213.575 55.1861 212.635 55.1861H185.406C184.466 55.1861 183.704 54.4242 183.704 53.4843V39.7032C183.704 39.1469 183.957 38.6819 184.34 38.376L184.368 38.3535L184.394 38.3288L184.395 38.3288L184.395 38.3287L184.395 38.3282L184.398 38.3262L187.958 36.0106V34.9956Z" fill="#333333"/>
<mask id="path-183-inside-5_2773_3212" fill="white">
<path fill-rule="evenodd" clip-rule="evenodd" d="M189.66 22.8509H208.38C208.85 22.8509 209.231 23.2319 209.231 23.7018V43.192L210.082 42.7599V23.7018C210.082 22.7619 209.32 22 208.38 22H189.66C188.72 22 187.958 22.7619 187.958 23.7018V42.9141L188.809 43.3345V23.7018C188.809 23.2319 189.19 22.8509 189.66 22.8509ZM197.296 47.5272L198.254 48.0005C198.735 48.2381 199.299 48.235 199.778 47.9921L200.694 47.5272H197.296Z"/>
</mask>
<path fill-rule="evenodd" clip-rule="evenodd" d="M189.66 22.8509H208.38C208.85 22.8509 209.231 23.2319 209.231 23.7018V43.192L210.082 42.7599V23.7018C210.082 22.7619 209.32 22 208.38 22H189.66C188.72 22 187.958 22.7619 187.958 23.7018V42.9141L188.809 43.3345V23.7018C188.809 23.2319 189.19 22.8509 189.66 22.8509ZM197.296 47.5272L198.254 48.0005C198.735 48.2381 199.299 48.235 199.778 47.9921L200.694 47.5272H197.296Z" fill="white"/>
<path d="M209.231 43.192H208.231V44.8213L209.684 44.0836L209.231 43.192ZM210.082 42.7599L210.535 43.6515L211.082 43.3737V42.7599H210.082ZM187.958 42.9141H186.958V43.5354L187.515 43.8106L187.958 42.9141ZM188.809 43.3345L188.366 44.231L189.809 44.9439V43.3345H188.809ZM198.254 48.0005L197.811 48.897L197.811 48.897L198.254 48.0005ZM197.296 47.5272V46.5272L196.853 48.4237L197.296 47.5272ZM199.778 47.9921L200.231 48.8837L199.778 47.9921ZM200.694 47.5272L201.146 48.4188L200.694 46.5272V47.5272ZM208.38 21.8509H189.66V23.8509H208.38V21.8509ZM210.231 23.7018C210.231 22.6796 209.402 21.8509 208.38 21.8509V23.8509C208.298 23.8509 208.231 23.7842 208.231 23.7018H210.231ZM210.231 43.192V23.7018H208.231V43.192H210.231ZM209.629 41.8683L208.778 42.3004L209.684 44.0836L210.535 43.6515L209.629 41.8683ZM211.082 42.7599V23.7018H209.082V42.7599H211.082ZM211.082 23.7018C211.082 22.2096 209.872 21 208.38 21V23C208.768 23 209.082 23.3142 209.082 23.7018H211.082ZM208.38 21H189.66V23H208.38V21ZM189.66 21C188.168 21 186.958 22.2096 186.958 23.7018H188.958C188.958 23.3142 189.273 23 189.66 23V21ZM186.958 23.7018V42.9141H188.958V23.7018H186.958ZM189.252 42.4379L188.401 42.0175L187.515 43.8106L188.366 44.231L189.252 42.4379ZM187.809 23.7018V43.3345H189.809V23.7018H187.809ZM189.66 21.8509C188.638 21.8509 187.809 22.6796 187.809 23.7018H189.809C189.809 23.7842 189.743 23.8509 189.66 23.8509V21.8509ZM198.696 47.1039L197.738 46.6306L196.853 48.4237L197.811 48.897L198.696 47.1039ZM199.325 47.1005C199.128 47.2006 198.895 47.2019 198.696 47.1039L197.811 48.897C198.574 49.2743 199.471 49.2694 200.231 48.8837L199.325 47.1005ZM200.241 46.6355L199.325 47.1005L200.231 48.8837L201.146 48.4188L200.241 46.6355ZM197.296 48.5272H200.694V46.5272H197.296V48.5272Z" fill="#333333" mask="url(#path-183-inside-5_2773_3212)"/>
<path d="M192.205 31.3604H205.835" stroke="#333333" stroke-linecap="round"/>
<path d="M192.205 35.0811H201.58" stroke="#333333" stroke-linecap="round"/>
<path d="M212.486 40.5293C212.732 40.4037 213.033 40.5013 213.159 40.7473C213.285 40.9932 213.187 41.2944 212.941 41.4199L212.486 40.5293ZM199.79 47.5722L200.017 48.0175V48.0175L199.79 47.5722ZM198.256 47.5791L198.479 47.1317V47.1317L198.256 47.5791ZM185.076 41.5584C184.829 41.4351 184.729 41.1348 184.852 40.8878C184.975 40.6407 185.275 40.5404 185.523 40.6637L185.076 41.5584ZM212.941 41.4199L200.017 48.0175L199.562 47.1268L212.486 40.5293L212.941 41.4199ZM198.032 48.0264L185.076 41.5584L185.523 40.6637L198.479 47.1317L198.032 48.0264ZM200.017 48.0175C199.394 48.3353 198.658 48.3386 198.032 48.0264L198.479 47.1317C198.82 47.3021 199.222 47.3003 199.562 47.1268L200.017 48.0175Z" fill="#333333"/>
</g>
<g clip-path="url(#clip12_2773_3212)">
<rect x="241.6" y="22.5" width="21.1" height="33" rx="2.05" stroke="#333333"/>
<path d="M250.875 24.8994C250.599 24.8994 250.375 25.1233 250.375 25.3994C250.375 25.6756 250.599 25.8994 250.875 25.8994V24.8994ZM253.425 25.8994C253.701 25.8994 253.925 25.6756 253.925 25.3994C253.925 25.1233 253.701 24.8994 253.425 24.8994V25.8994ZM250.875 25.8994H253.425V24.8994H250.875V25.8994Z" fill="#333333"/>
<path d="M258.949 29.6494C253.315 29.6494 248.75 33.2516 248.75 37.6952C248.75 40.5877 250.685 43.1222 253.589 44.5405C253.378 45.3356 252.816 47.4203 252.704 47.8658C252.567 48.4194 252.908 48.412 253.131 48.2628C253.307 48.1463 255.927 46.3695 257.057 45.6023C257.684 45.695 258.317 45.7415 258.951 45.7415C264.585 45.7415 269.15 42.1383 269.15 37.6952C269.15 33.2521 264.583 29.6494 258.951 29.6494" fill="white"/>
<path d="M258.949 29.6494C253.315 29.6494 248.75 33.2516 248.75 37.6952C248.75 40.5877 250.685 43.1222 253.589 44.5405C253.378 45.3356 252.816 47.4203 252.704 47.8658C252.567 48.4194 252.908 48.412 253.131 48.2628C253.307 48.1463 255.927 46.3695 257.057 45.6023C257.684 45.695 258.317 45.7415 258.951 45.7415C264.585 45.7415 269.15 42.1383 269.15 37.6952C269.15 33.2521 264.583 29.6494 258.951 29.6494" stroke="#333333"/>
</g>
<g clip-path="url(#clip13_2773_3212)">
<path d="M79.728 43.2155V36.451V33.7206C79.728 27.4983 84.7722 22.4541 90.9945 22.4541V22.4541C97.2168 22.4541 102.261 27.4983 102.261 33.7206V36.451V43.2155" stroke="#333333"/>
<path d="M77.4017 37.4414H79.6393V47.9754H77.4017C75.8001 47.9754 74.5017 46.677 74.5017 45.0754V40.3414C74.5017 38.7398 75.8001 37.4414 77.4017 37.4414Z" stroke="#333333"/>
<path d="M104.602 37.417H102.338V47.951H104.602C106.203 47.951 107.502 46.6526 107.502 45.051V40.317C107.502 38.7154 106.203 37.417 104.602 37.417Z" stroke="#333333"/>
<path d="M102.264 47.1826C102.264 51.4825 99.39 53.2378 95.0901 53.2378" stroke="#333333"/>
<rect x="88.0642" y="51.1484" width="6.94184" height="4.35175" rx="1.87006" stroke="#333333"/>
</g>
<g clip-path="url(#clip14_2773_3212)">
<mask id="path-197-inside-6_2773_3212" fill="white">
<path fill-rule="evenodd" clip-rule="evenodd" d="M129.775 27.3502C129.371 26.9424 128.687 27.047 128.492 27.5874C128.167 28.4881 127.99 29.4602 127.99 30.4741C127.99 35.1402 131.74 38.9229 136.366 38.9229C137.194 38.9229 137.995 38.8016 138.75 38.5757L149.559 49.3842C149.548 49.5311 149.543 49.6794 149.543 49.8289C149.543 53.2252 152.272 55.9784 155.639 55.9784C159.006 55.9784 161.735 53.2252 161.735 49.8289C161.735 46.4327 159.006 43.6795 155.639 43.6795C155.291 43.6795 154.949 43.709 154.616 43.7656L144.233 33.3818C144.562 32.4752 144.742 31.4958 144.742 30.4741C144.742 25.8079 140.992 22.0253 136.366 22.0253C135.357 22.0253 134.39 22.2052 133.494 22.5349C132.958 22.7324 132.857 23.413 133.263 23.8155L136.216 26.7443C136.309 26.8373 136.357 26.9671 136.346 27.0987L136.115 29.7731C136.096 29.9888 135.925 30.1598 135.709 30.1784L133.035 30.4094C132.903 30.4207 132.774 30.3731 132.681 30.2793L129.775 27.3502Z"/>
</mask>
<path d="M128.492 27.5874L129.433 27.9264L129.433 27.9264L128.492 27.5874ZM129.776 27.3502L129.066 28.0544L129.066 28.0544L129.776 27.3502ZM127.99 30.4741L126.99 30.4741V30.4741L127.99 30.4741ZM136.366 38.9229L136.366 37.9229L136.366 37.9229L136.366 38.9229ZM138.75 38.5757L139.457 37.8686L139.035 37.4467L138.464 37.6176L138.75 38.5757ZM149.559 49.3841L150.556 49.4548L150.588 48.9997L150.266 48.677L149.559 49.3841ZM149.543 49.8289L148.543 49.8289L148.543 49.8289L149.543 49.8289ZM155.639 55.9784L155.639 54.9784L155.639 55.9784ZM161.735 49.8289L160.735 49.8289L160.735 49.8289H161.735ZM155.639 43.6795L155.639 44.6795H155.639L155.639 43.6795ZM154.617 43.7656L153.909 44.4727L154.275 44.8382L154.784 44.7514L154.617 43.7656ZM144.233 33.3818L143.293 33.0402L143.075 33.6387L143.526 34.0889L144.233 33.3818ZM136.366 22.0253L136.366 23.0253L136.366 23.0253L136.366 22.0253ZM133.495 22.5349L133.84 23.4733L133.84 23.4733L133.495 22.5349ZM133.263 23.8155L132.559 24.5255L132.559 24.5255L133.263 23.8155ZM136.216 26.7442L136.92 26.0342L136.92 26.0342L136.216 26.7442ZM136.346 27.0987L137.342 27.1847V27.1847L136.346 27.0987ZM136.115 29.7731L137.111 29.8591L137.111 29.8591L136.115 29.7731ZM135.71 30.1784L135.624 29.1821L135.71 30.1784ZM133.035 30.4093L132.949 29.413H132.949L133.035 30.4093ZM132.681 30.2793L133.391 29.5751L133.391 29.5751L132.681 30.2793ZM129.433 27.9264C129.42 27.9619 129.392 28.0055 129.348 28.0414C129.306 28.0753 129.263 28.0921 129.226 28.0984C129.155 28.1108 129.097 28.0862 129.066 28.0544L130.486 26.646C129.645 25.7986 128.033 25.9112 127.551 27.2484L129.433 27.9264ZM128.99 30.4741C128.99 29.5773 129.147 28.7198 129.433 27.9264L127.551 27.2484C127.188 28.2563 126.99 29.3431 126.99 30.4741L128.99 30.4741ZM136.366 37.9229C132.301 37.9229 128.99 34.5961 128.99 30.4741L126.99 30.4741C126.99 35.6843 131.18 39.9229 136.366 39.9229L136.366 37.9229ZM138.464 37.6176C137.8 37.816 137.096 37.9229 136.366 37.9229L136.366 39.9229C137.293 39.9229 138.189 39.7872 139.037 39.5338L138.464 37.6176ZM150.266 48.677L139.457 37.8686L138.043 39.2828L148.852 50.0912L150.266 48.677ZM150.543 49.8289C150.543 49.7029 150.547 49.5782 150.556 49.4548L148.561 49.3135C148.549 49.4839 148.543 49.6558 148.543 49.8289L150.543 49.8289ZM155.639 54.9784C152.833 54.9784 150.543 52.6811 150.543 49.8289L148.543 49.8289C148.543 53.7692 151.712 56.9784 155.639 56.9784L155.639 54.9784ZM160.735 49.8289C160.735 52.6811 158.446 54.9784 155.639 54.9784L155.639 56.9784C159.567 56.9784 162.735 53.7692 162.735 49.8289L160.735 49.8289ZM155.639 44.6795C158.446 44.6795 160.735 46.9767 160.735 49.8289L162.735 49.8289C162.736 45.8886 159.567 42.6795 155.639 42.6795V44.6795ZM154.784 44.7514C155.062 44.7042 155.347 44.6795 155.639 44.6795L155.639 42.6795C155.234 42.6795 154.836 42.7138 154.449 42.7798L154.784 44.7514ZM143.526 34.0889L153.909 44.4727L155.324 43.0585L144.94 32.6747L143.526 34.0889ZM143.742 30.4741C143.742 31.3778 143.583 32.2416 143.293 33.0402L145.173 33.7233C145.541 32.7087 145.742 31.6139 145.742 30.4741L143.742 30.4741ZM136.366 23.0253C140.432 23.0253 143.742 26.352 143.742 30.4741L145.742 30.4741C145.742 25.2638 141.552 21.0253 136.366 21.0253L136.366 23.0253ZM133.84 23.4733C134.627 23.1837 135.477 23.0253 136.366 23.0253L136.366 21.0253C135.238 21.0253 134.154 21.2267 133.149 21.5965L133.84 23.4733ZM133.967 23.1055C133.999 23.1369 134.023 23.1949 134.011 23.2656C134.005 23.3019 133.989 23.3457 133.955 23.3877C133.919 23.4321 133.876 23.4602 133.84 23.4733L133.149 21.5965C131.82 22.0857 131.716 23.6896 132.559 24.5255L133.967 23.1055ZM136.92 26.0342L133.967 23.1055L132.559 24.5255L135.512 27.4542L136.92 26.0342ZM137.342 27.1847C137.379 26.7576 137.224 26.3361 136.92 26.0342L135.512 27.4542C135.395 27.3384 135.335 27.1766 135.349 27.0126L137.342 27.1847ZM137.111 29.8591L137.342 27.1847L135.349 27.0126L135.119 29.6871L137.111 29.8591ZM135.796 31.1747C136.496 31.1142 137.051 30.5591 137.111 29.8591L135.119 29.6871C135.142 29.4184 135.355 29.2053 135.624 29.1821L135.796 31.1747ZM133.121 31.4056L135.796 31.1747L135.624 29.1821L132.949 29.413L133.121 31.4056ZM131.971 30.9835C132.273 31.2879 132.694 31.4425 133.121 31.4056L132.949 29.413C133.113 29.3989 133.275 29.4582 133.391 29.5751L131.971 30.9835ZM129.066 28.0544L131.971 30.9835L133.391 29.5751L130.486 26.646L129.066 28.0544Z" fill="#333333" mask="url(#path-197-inside-6_2773_3212)"/>
<circle r="2.19445" transform="matrix(-1 0 0 1 155.64 49.8282)" stroke="#333333"/>
</g>
<path d="M61.5 231.5H71.5" stroke="black" stroke-miterlimit="10" stroke-linecap="round" stroke-linejoin="round"/>
<path d="M67.5 227.5L71.5 231.5L67.5 235.5" stroke="black" stroke-miterlimit="10" stroke-linecap="round" stroke-linejoin="round"/>
<path d="M64.5 238.5H57.5C56.948 238.5 56.5 238.052 56.5 237.5V225.5C56.5 224.948 56.948 224.5 57.5 224.5H64.5" stroke="black" stroke-miterlimit="10" stroke-linecap="round" stroke-linejoin="round"/>
<defs>
<clipPath id="clip0_2773_3212">
<rect width="24" height="24" fill="white" transform="translate(377 587)"/>
</clipPath>
<clipPath id="clip1_2773_3212">
<rect width="24" height="24" fill="white" transform="translate(421 587)"/>
</clipPath>
<clipPath id="clip2_2773_3212">
<rect width="24" height="24" fill="white" transform="translate(25 587)"/>
</clipPath>
<clipPath id="clip3_2773_3212">
<rect width="18" height="18" fill="white" transform="translate(105 690)"/>
</clipPath>
<clipPath id="clip4_2773_3212">
<rect width="20" height="20" fill="white" transform="matrix(4.37114e-08 1 1 -4.37114e-08 65 641)"/>
</clipPath>
<clipPath id="clip5_2773_3212">
<rect width="20" height="20" fill="white" transform="matrix(4.37114e-08 1 1 -4.37114e-08 145 641)"/>
</clipPath>
<clipPath id="clip6_2773_3212">
<rect width="20" height="20" fill="white" transform="translate(545 641)"/>
</clipPath>
<clipPath id="clip7_2773_3212">
<rect width="20" height="20" fill="white" transform="translate(100 164)"/>
</clipPath>
<clipPath id="clip8_2773_3212">
<rect width="20" height="20" fill="white" transform="translate(140 164)"/>
</clipPath>
<clipPath id="clip9_2773_3212">
<rect width="20" height="20" fill="white" transform="translate(300 164)"/>
</clipPath>
<clipPath id="clip10_2773_3212">
<rect width="34.002" height="34.002" fill="white" transform="translate(20 22)"/>
</clipPath>
<clipPath id="clip11_2773_3212">
<rect width="34" height="34" fill="white" transform="translate(182.002 22)"/>
</clipPath>
<clipPath id="clip12_2773_3212">
<rect width="34" height="34" fill="white" transform="translate(236 22)"/>
</clipPath>
<clipPath id="clip13_2773_3212">
<rect width="34.0001" height="34.0001" fill="white" transform="translate(74.002 22)"/>
</clipPath>
<clipPath id="clip14_2773_3212">
<rect width="34" height="34" fill="white" transform="translate(128.002 22)"/>
</clipPath>
</defs>
</svg>
